<?xml version="1.0" standalone="no"?>
<!DOCTYPE svg PUBLIC "-//W3C//DTD SVG 20010904//EN"
 "http://www.w3.org/TR/2001/REC-SVG-20010904/DTD/svg10.dtd">
<svg version="1.0" xmlns="http://www.w3.org/2000/svg"
 width="200.000000pt" height="200.000000pt" viewBox="0 0 200.000000 200.000000"
 preserveAspectRatio="xMidYMid meet">
<metadata>
Created by potrace 1.11, written by Peter Selinger 2001-2013
</metadata>
<g transform="translate(0.000000,200.000000) scale(0.100000,-0.100000)"
fill="#000000" stroke="none">
<path d="M879 1996 c-2 -2 -21 -7 -41 -10 -75 -12 -133 -28 -208 -58 -286
-113 -507 -359 -591 -655 -29 -104 -34 -138 -33 -273 0 -131 7 -192 33 -276
26 -85 81 -214 92 -214 5 0 9 -6 9 -14 0 -40 171 -231 272 -304 70 -52 201
-120 253 -132 6 -1 21 -7 35 -13 72 -29 189 -45 315 -42 72 1 141 5 155 9 14
3 39 8 55 12 59 11 174 54 239 89 274 145 466 408 521 711 13 76 14 286 1 344
-3 14 -7 36 -10 50 -7 45 -47 153 -82 226 -85 177 -252 348 -429 438 -60 30
-130 60 -130 56 0 -1 -13 4 -30 11 -65 26 -197 46 -308 47 -63 1 -116 -1 -118
-2z"/>
</g>
</svg>
